# xmcd
#
# Track frame offsets:
# 150
# 18095
# 35624
# 49045
# 70864
# 82387
# 93702
# 105927
# 116358
# 127725
# 138754
# 150719
# 162268
# 175273
# 186094
# 209889
# 228354
# 245077
# 257770
#
# Disc length: 3657 seconds
#
#
# Revision: 0
# Processed by: cddbd v1.5.1PL2 Copyright (c) Steve Scherf et al.
# Submitted via: FreeRIP 2.943 
#
DISCID=020e4713
DTITLE=Lightnin' Hopkins - The Blues Biography
DYEAR=2005
DGENRE=Blues
TTITLE0=Shake That Thing
TTITLE1=I'm Leaving You Now
TTITLE2=Mojo Hand
TTITLE3=Awful Dreams
TTITLE4=Sometimes She Will
TTITLE5=Just Sittin' Down Thinkin'
TTITLE6=Sugar On My Mind
TTITLE7=Lightnin's Boogie
TTITLE8=Baby You're Not Going To Make A Fool Out Of Me
TTITLE9=Daddy Will Be Home One Day
TTITLE10=Have To Let You Go
TTITLE11=Honey Babe
TTITLE12=Thinkin' And Worryin'
TTITLE13=Short Haired Woman
TTITLE14=Early In The Morning Blues
TTITLE15=Shinin Blues
TTITLE16=Fugitive Blues
TTITLE17=Rain
TTITLE18=Goin' To Dallas
EXTD=
EXTT0=
EXTT1=
EXTT2=
EXTT3=
EXTT4=
EXTT5=
EXTT6=
EXTT7=
EXTT8=
EXTT9=
EXTT10=
EXTT11=
EXTT12=
EXTT13=
EXTT14=
EXTT15=
EXTT16=
EXTT17=
EXTT18=
PLAYORDER=
